<?xml version="1.0" encoding="UTF-8" standalone="no"?>
<svg
   xmlns:dc="http://purl.org/dc/elements/1.1/"
   xmlns:cc="http://creativecommons.org/ns#"
   xmlns:rdf="http://www.w3.org/1999/02/22-rdf-syntax-ns#"
   xmlns:svg="http://www.w3.org/2000/svg"
   xmlns="http://www.w3.org/2000/svg"
   viewBox="0 0 88.499938 77.23136"
   height="77.231361"
   width="88.499939"
   xml:space="preserve"
   id="svg2"
   version="1.1"><metadata
     id="metadata8"><rdf:RDF><cc:Work
         rdf:about=""><dc:format>image/svg+xml</dc:format><dc:type
           rdf:resource="http://purl.org/dc/dcmitype/StillImage" /><dc:title></dc:title></cc:Work></rdf:RDF></metadata><defs
     id="defs6" /><g
     transform="matrix(1.3333333,0,0,-1.3333333,-390.45171,1092.0666)"
     id="g10"><g
       transform="translate(326.33125,775.73723)"
       id="g14"><g
         id="g16"><g
           id="g18"><path
             d="m 2.49069,28.3468 c 0,1.37558 -1.11511,2.4907 -2.49069,2.4907 -1.37558,0 -2.49069,-1.11512 -2.49069,-2.4907 0,-1.37558 1.11511,-2.49069 2.49069,-2.49069 1.37558,0 2.49069,1.11511 2.49069,2.49069 z"
             style="fill:#000000;fill-opacity:1;fill-rule:nonzero;stroke:none"
             id="path20" /><g
             id="g22"
             transform="translate(0,28.346)"><g
               id="g24" /><g
               id="g26"
               transform="translate(0,-28.346)" /></g></g><g
           id="g28"><g
             id="g30"
             transform="translate(-5.127,36.05)"><g
               id="g32"><g
                 id="g34"
                 transform="translate(-292.511,-759.761)"><text
                   transform="matrix(1,0,0,-1,292.511,759.761)"
                   style="font-variant:normal;font-weight:normal;font-size:9.96259975px;font-family:CMMI10;-inkscape-font-specification:CMMI10;writing-mode:lr-tb;fill:#000000;fill-opacity:1;fill-rule:nonzero;stroke:none"
                   id="text38"><tspan
                     x="0"
                     y="0"
                     id="tspan36">Y</tspan></text>
<text
                   transform="matrix(1,0,0,-1,298.295,758.267)"
                   style="font-variant:normal;font-weight:normal;font-size:6.97380018px;font-family:CMR7;-inkscape-font-specification:CMR7;writing-mode:lr-tb;fill:#000000;fill-opacity:1;fill-rule:nonzero;stroke:none"
                   id="text42"><tspan
                     x="0"
                     y="0"
                     id="tspan40">1</tspan></text>
<g
                   id="g44"
                   transform="translate(292.511,759.761)" /></g></g><g
               id="g46"
               transform="translate(5.127,-36.05)" /></g></g><g
           id="g48"><path
             d="m -25.85611,0 c 0,1.37558 -1.11511,2.49069 -2.49069,2.49069 -1.37558,0 -2.4907,-1.11511 -2.4907,-2.49069 0,-1.37558 1.11512,-2.49069 2.4907,-2.49069 1.37558,0 2.49069,1.11511 2.49069,2.49069 z"
             style="fill:#000000;fill-opacity:1;fill-rule:nonzero;stroke:none"
             id="path50" /><g
             id="g52"
             transform="translate(-28.347)"><g
               id="g54" /><g
               id="g56"
               transform="translate(28.347)" /></g></g><g
           id="g58"><g
             id="g60"
             transform="translate(-33.473,-13.017)"><g
               id="g62"><g
                 id="g64"
                 transform="translate(-264.165,-710.694)"><text
                   transform="matrix(1,0,0,-1,264.165,710.694)"
                   style="font-variant:normal;font-weight:normal;font-size:9.96259975px;font-family:CMMI10;-inkscape-font-specification:CMMI10;writing-mode:lr-tb;fill:#000000;fill-opacity:1;fill-rule:nonzero;stroke:none"
                   id="text68"><tspan
                     x="0"
                     y="0"
                     id="tspan66">Y</tspan></text>
<text
                   transform="matrix(1,0,0,-1,269.949,709.199)"
                   style="font-variant:normal;font-weight:normal;font-size:6.97380018px;font-family:CMR7;-inkscape-font-specification:CMR7;writing-mode:lr-tb;fill:#000000;fill-opacity:1;fill-rule:nonzero;stroke:none"
                   id="text72"><tspan
                     x="0"
                     y="0"
                     id="tspan70">2</tspan></text>
<g
                   id="g74"
                   transform="translate(264.165,710.694)" /></g></g><g
               id="g76"
               transform="translate(33.473,13.017)" /></g></g><g
           id="g78"><path
             d="m 30.8375,0 c 0,1.37558 -1.11512,2.49069 -2.4907,2.49069 -1.37558,0 -2.49069,-1.11511 -2.49069,-2.49069 0,-1.37558 1.11511,-2.49069 2.49069,-2.49069 1.37558,0 2.4907,1.11511 2.4907,2.49069 z"
             style="fill:#000000;fill-opacity:1;fill-rule:nonzero;stroke:none"
             id="path80" /><g
             id="g82"
             transform="translate(28.346)"><g
               id="g84" /><g
               id="g86"
               transform="translate(-28.346)" /></g></g><g
           id="g88"><g
             id="g90"
             transform="translate(23.22,-13.017)"><g
               id="g92"><g
                 id="g94"
                 transform="translate(-320.858,-710.694)"><text
                   transform="matrix(1,0,0,-1,320.858,710.694)"
                   style="font-variant:normal;font-weight:normal;font-size:9.96259975px;font-family:CMMI10;-inkscape-font-specification:CMMI10;writing-mode:lr-tb;fill:#000000;fill-opacity:1;fill-rule:nonzero;stroke:none"
                   id="text98"><tspan
                     x="0"
                     y="0"
                     id="tspan96">Y</tspan></text>
<text
                   transform="matrix(1,0,0,-1,326.642,709.199)"
                   style="font-variant:normal;font-weight:normal;font-size:6.97380018px;font-family:CMR7;-inkscape-font-specification:CMR7;writing-mode:lr-tb;fill:#000000;fill-opacity:1;fill-rule:nonzero;stroke:none"
                   id="text102"><tspan
                     x="0"
                     y="0"
                     id="tspan100">3</tspan></text>
<g
                   id="g104"
                   transform="translate(320.858,710.694)" /></g></g><g
               id="g106"
               transform="translate(-23.22,13.017)" /></g></g><path
           d="M -1.90207,26.44473 -26.12062,2.2261"
           style="fill:none;stroke:#000000;stroke-width:0.3985;stroke-linecap:butt;stroke-linejoin:miter;stroke-miterlimit:10;stroke-dasharray:none;stroke-opacity:1"
           id="path108" /><g
           id="g110"
           transform="matrix(-0.70714,-0.7071,0.7071,-0.70714,-26.1206,2.2261)"><g
             id="g112"><path
               d="M -1.19551,1.59401 C -1.09587,0.99626 0,0.09961 0.29886,0 0,-0.09961 -1.09587,-0.99626 -1.19551,-1.59401"
               style="fill:none;stroke:#000000;stroke-width:0.31878999;stroke-linecap:round;stroke-linejoin:round;stroke-miterlimit:10;stroke-dasharray:none;stroke-opacity:1"
               id="path114" /></g></g><path
           d="M 1.90207,26.44473 26.12062,2.2261"
           style="fill:none;stroke:#000000;stroke-width:0.3985;stroke-linecap:butt;stroke-linejoin:miter;stroke-miterlimit:10;stroke-dasharray:none;stroke-opacity:1"
           id="path116" /><g
           id="g118"
           transform="matrix(0.70714,-0.7071,0.7071,0.70714,26.1206,2.2261)"><g
             id="g120"><path
               d="M -1.19551,1.59401 C -1.09587,0.99626 0,0.09961 0.29886,0 0,-0.09961 -1.09587,-0.99626 -1.19551,-1.59401"
               style="fill:none;stroke:#000000;stroke-width:0.31878999;stroke-linecap:round;stroke-linejoin:round;stroke-miterlimit:10;stroke-dasharray:none;stroke-opacity:1"
               id="path122" /></g></g></g></g></g></svg>